<mxfile host="app.diagrams.net" modified="2022-09-09T09:39:16.607Z" agent="5.0 (Windows NT 10.0; Win64; x64) AppleWebKit/537.36 (KHTML, like Gecko) Chrome/105.0.0.0 Safari/537.36" etag="wny6snteLJsYViOPs_Ng" version="20.2.8" type="github" pages="2">
  <diagram id="P9QTJZ5rXmRwZal_yIo5" name="Class Diagram">
    <mxGraphModel dx="2062" dy="1122" grid="1" gridSize="10" guides="1" tooltips="1" connect="1" arrows="1" fold="1" page="1" pageScale="1" pageWidth="827" pageHeight="1169" math="0" shadow="0">
      <root>
        <mxCell id="0" />
        <mxCell id="1" parent="0" />
        <mxCell id="5FOv1k2OfvSD3q4lhbbe-3" value="ThreadLocal" style="swimlane;fontStyle=1;align=center;verticalAlign=top;childLayout=stackLayout;horizontal=1;startSize=26;horizontalStack=0;resizeParent=1;resizeParentMax=0;resizeLast=0;collapsible=1;marginBottom=0;" parent="1" vertex="1">
          <mxGeometry x="50" y="480" width="160" height="34" as="geometry" />
        </mxCell>
        <mxCell id="5FOv1k2OfvSD3q4lhbbe-5" value="" style="line;strokeWidth=1;fillColor=none;align=left;verticalAlign=middle;spacingTop=-1;spacingLeft=3;spacingRight=3;rotatable=0;labelPosition=right;points=[];portConstraint=eastwest;strokeColor=inherit;" parent="5FOv1k2OfvSD3q4lhbbe-3" vertex="1">
          <mxGeometry y="26" width="160" height="8" as="geometry" />
        </mxCell>
        <mxCell id="5FOv1k2OfvSD3q4lhbbe-9" value="" style="endArrow=open;startArrow=circlePlus;endFill=0;startFill=0;endSize=8;html=1;rounded=0;exitX=1;exitY=0.5;exitDx=0;exitDy=0;entryX=0;entryY=0.5;entryDx=0;entryDy=0;" parent="1" source="5FOv1k2OfvSD3q4lhbbe-3" target="5FOv1k2OfvSD3q4lhbbe-10" edge="1">
          <mxGeometry width="160" relative="1" as="geometry">
            <mxPoint x="320" y="196.5" as="sourcePoint" />
            <mxPoint x="390" y="197" as="targetPoint" />
          </mxGeometry>
        </mxCell>
        <mxCell id="5FOv1k2OfvSD3q4lhbbe-10" value="ThreadLocalMap" style="swimlane;fontStyle=1;align=center;verticalAlign=top;childLayout=stackLayout;horizontal=1;startSize=26;horizontalStack=0;resizeParent=1;resizeParentMax=0;resizeLast=0;collapsible=1;marginBottom=0;" parent="1" vertex="1">
          <mxGeometry x="260" y="480" width="160" height="34" as="geometry" />
        </mxCell>
        <mxCell id="5FOv1k2OfvSD3q4lhbbe-11" value="" style="line;strokeWidth=1;fillColor=none;align=left;verticalAlign=middle;spacingTop=-1;spacingLeft=3;spacingRight=3;rotatable=0;labelPosition=right;points=[];portConstraint=eastwest;strokeColor=inherit;" parent="5FOv1k2OfvSD3q4lhbbe-10" vertex="1">
          <mxGeometry y="26" width="160" height="8" as="geometry" />
        </mxCell>
        <mxCell id="5FOv1k2OfvSD3q4lhbbe-12" value="" style="endArrow=open;startArrow=circlePlus;endFill=0;startFill=0;endSize=8;html=1;rounded=0;exitX=1;exitY=0.25;exitDx=0;exitDy=0;entryX=0;entryY=0.5;entryDx=0;entryDy=0;" parent="1" source="5FOv1k2OfvSD3q4lhbbe-10" target="5FOv1k2OfvSD3q4lhbbe-13" edge="1">
          <mxGeometry width="160" relative="1" as="geometry">
            <mxPoint x="330" y="570" as="sourcePoint" />
            <mxPoint x="620" y="220" as="targetPoint" />
          </mxGeometry>
        </mxCell>
        <mxCell id="5FOv1k2OfvSD3q4lhbbe-13" value="Entry" style="swimlane;fontStyle=1;align=center;verticalAlign=top;childLayout=stackLayout;horizontal=1;startSize=26;horizontalStack=0;resizeParent=1;resizeParentMax=0;resizeLast=0;collapsible=1;marginBottom=0;" parent="1" vertex="1">
          <mxGeometry x="510" y="470" width="160" height="34" as="geometry" />
        </mxCell>
        <mxCell id="5FOv1k2OfvSD3q4lhbbe-14" value="" style="line;strokeWidth=1;fillColor=none;align=left;verticalAlign=middle;spacingTop=-1;spacingLeft=3;spacingRight=3;rotatable=0;labelPosition=right;points=[];portConstraint=eastwest;strokeColor=inherit;" parent="5FOv1k2OfvSD3q4lhbbe-13" vertex="1">
          <mxGeometry y="26" width="160" height="8" as="geometry" />
        </mxCell>
        <mxCell id="5FOv1k2OfvSD3q4lhbbe-15" value="WeakReference" style="swimlane;fontStyle=1;align=center;verticalAlign=top;childLayout=stackLayout;horizontal=1;startSize=26;horizontalStack=0;resizeParent=1;resizeParentMax=0;resizeLast=0;collapsible=1;marginBottom=0;" parent="1" vertex="1">
          <mxGeometry x="490" y="310" width="160" height="34" as="geometry" />
        </mxCell>
        <mxCell id="5FOv1k2OfvSD3q4lhbbe-16" value="" style="line;strokeWidth=1;fillColor=none;align=left;verticalAlign=middle;spacingTop=-1;spacingLeft=3;spacingRight=3;rotatable=0;labelPosition=right;points=[];portConstraint=eastwest;strokeColor=inherit;" parent="5FOv1k2OfvSD3q4lhbbe-15" vertex="1">
          <mxGeometry y="26" width="160" height="8" as="geometry" />
        </mxCell>
        <mxCell id="5FOv1k2OfvSD3q4lhbbe-17" value="Extends" style="endArrow=block;endSize=16;endFill=0;html=1;rounded=0;exitX=0.25;exitY=0;exitDx=0;exitDy=0;" parent="1" source="5FOv1k2OfvSD3q4lhbbe-13" target="5FOv1k2OfvSD3q4lhbbe-15" edge="1">
          <mxGeometry width="160" relative="1" as="geometry">
            <mxPoint x="330" y="570" as="sourcePoint" />
            <mxPoint x="490" y="570" as="targetPoint" />
          </mxGeometry>
        </mxCell>
        <mxCell id="5FOv1k2OfvSD3q4lhbbe-20" value="1" style="endArrow=open;html=1;endSize=12;startArrow=diamondThin;startSize=14;startFill=1;edgeStyle=orthogonalEdgeStyle;align=left;verticalAlign=bottom;rounded=0;entryX=0.5;entryY=0;entryDx=0;entryDy=0;" parent="1" source="5FOv1k2OfvSD3q4lhbbe-22" target="5FOv1k2OfvSD3q4lhbbe-10" edge="1">
          <mxGeometry x="-1" y="3" relative="1" as="geometry">
            <mxPoint x="340" y="270" as="sourcePoint" />
            <mxPoint x="490" y="570" as="targetPoint" />
          </mxGeometry>
        </mxCell>
        <mxCell id="5FOv1k2OfvSD3q4lhbbe-22" value="Classname" style="swimlane;fontStyle=1;align=center;verticalAlign=top;childLayout=stackLayout;horizontal=1;startSize=26;horizontalStack=0;resizeParent=1;resizeParentMax=0;resizeLast=0;collapsible=1;marginBottom=0;" parent="1" vertex="1">
          <mxGeometry x="225" y="190" width="230" height="86" as="geometry" />
        </mxCell>
        <mxCell id="5FOv1k2OfvSD3q4lhbbe-23" value="+ threadLocals: ThreadLocalMap" style="text;strokeColor=none;fillColor=none;align=left;verticalAlign=top;spacingLeft=4;spacingRight=4;overflow=hidden;rotatable=0;points=[[0,0.5],[1,0.5]];portConstraint=eastwest;" parent="5FOv1k2OfvSD3q4lhbbe-22" vertex="1">
          <mxGeometry y="26" width="230" height="26" as="geometry" />
        </mxCell>
        <mxCell id="5FOv1k2OfvSD3q4lhbbe-24" value="" style="line;strokeWidth=1;fillColor=none;align=left;verticalAlign=middle;spacingTop=-1;spacingLeft=3;spacingRight=3;rotatable=0;labelPosition=right;points=[];portConstraint=eastwest;strokeColor=inherit;" parent="5FOv1k2OfvSD3q4lhbbe-22" vertex="1">
          <mxGeometry y="52" width="230" height="8" as="geometry" />
        </mxCell>
        <mxCell id="5FOv1k2OfvSD3q4lhbbe-25" value="+ method(type): type" style="text;strokeColor=none;fillColor=none;align=left;verticalAlign=top;spacingLeft=4;spacingRight=4;overflow=hidden;rotatable=0;points=[[0,0.5],[1,0.5]];portConstraint=eastwest;" parent="5FOv1k2OfvSD3q4lhbbe-22" vertex="1">
          <mxGeometry y="60" width="230" height="26" as="geometry" />
        </mxCell>
        <mxCell id="5FOv1k2OfvSD3q4lhbbe-26" value="1" style="endArrow=open;html=1;endSize=12;startArrow=diamondThin;startSize=14;startFill=0;edgeStyle=orthogonalEdgeStyle;align=left;verticalAlign=bottom;rounded=0;entryX=0.369;entryY=1;entryDx=0;entryDy=0;entryPerimeter=0;" parent="1" source="5FOv1k2OfvSD3q4lhbbe-10" target="5FOv1k2OfvSD3q4lhbbe-14" edge="1">
          <mxGeometry x="-0.8328" y="10" relative="1" as="geometry">
            <mxPoint x="330" y="570" as="sourcePoint" />
            <mxPoint x="490" y="570" as="targetPoint" />
            <Array as="points">
              <mxPoint x="360" y="560" />
              <mxPoint x="569" y="560" />
            </Array>
            <mxPoint as="offset" />
          </mxGeometry>
        </mxCell>
      </root>
    </mxGraphModel>
  </diagram>
  <diagram id="jeolgekILSuo-wQ3fMAs" name="set">
    <mxGraphModel dx="2062" dy="1122" grid="1" gridSize="10" guides="1" tooltips="1" connect="1" arrows="1" fold="1" page="1" pageScale="1" pageWidth="827" pageHeight="1169" math="0" shadow="0">
      <root>
        <mxCell id="0" />
        <mxCell id="1" parent="0" />
        <mxCell id="znrBxqbCc51DRQ3J4VA--14" style="edgeStyle=orthogonalEdgeStyle;rounded=0;orthogonalLoop=1;jettySize=auto;html=1;entryX=0.5;entryY=0;entryDx=0;entryDy=0;" edge="1" parent="1" source="EXvgWeVcrA3q5vCDi6ui-1" target="znrBxqbCc51DRQ3J4VA--13">
          <mxGeometry relative="1" as="geometry" />
        </mxCell>
        <mxCell id="EXvgWeVcrA3q5vCDi6ui-1" value="创建ThreadLocalMap并初始化，用当前线程作为key，入参作为value创建Entry，根据线程hash值置入table数组中对应位置" style="rounded=0;whiteSpace=wrap;html=1;" parent="1" vertex="1">
          <mxGeometry x="80" y="370" width="240" height="90" as="geometry" />
        </mxCell>
        <mxCell id="EXvgWeVcrA3q5vCDi6ui-5" style="edgeStyle=orthogonalEdgeStyle;rounded=0;orthogonalLoop=1;jettySize=auto;html=1;" parent="1" source="EXvgWeVcrA3q5vCDi6ui-2" target="EXvgWeVcrA3q5vCDi6ui-3" edge="1">
          <mxGeometry relative="1" as="geometry" />
        </mxCell>
        <mxCell id="EXvgWeVcrA3q5vCDi6ui-2" value="start" style="rounded=0;whiteSpace=wrap;html=1;" parent="1" vertex="1">
          <mxGeometry x="360" y="100" width="120" height="60" as="geometry" />
        </mxCell>
        <mxCell id="EXvgWeVcrA3q5vCDi6ui-4" style="edgeStyle=orthogonalEdgeStyle;rounded=0;orthogonalLoop=1;jettySize=auto;html=1;entryX=0.5;entryY=0;entryDx=0;entryDy=0;" parent="1" source="EXvgWeVcrA3q5vCDi6ui-3" target="EXvgWeVcrA3q5vCDi6ui-1" edge="1">
          <mxGeometry relative="1" as="geometry" />
        </mxCell>
        <mxCell id="EXvgWeVcrA3q5vCDi6ui-6" value="不存在" style="edgeLabel;html=1;align=center;verticalAlign=middle;resizable=0;points=[];" parent="EXvgWeVcrA3q5vCDi6ui-4" vertex="1" connectable="0">
          <mxGeometry x="-0.2324" y="4" relative="1" as="geometry">
            <mxPoint as="offset" />
          </mxGeometry>
        </mxCell>
        <mxCell id="UYhrJbz3DvosTMAueTBt-1" value="存在" style="edgeStyle=orthogonalEdgeStyle;rounded=0;orthogonalLoop=1;jettySize=auto;html=1;entryX=0.5;entryY=0;entryDx=0;entryDy=0;" edge="1" parent="1" source="EXvgWeVcrA3q5vCDi6ui-3" target="EXvgWeVcrA3q5vCDi6ui-7">
          <mxGeometry relative="1" as="geometry" />
        </mxCell>
        <mxCell id="EXvgWeVcrA3q5vCDi6ui-3" value="检查当前线程的map是否存在" style="rhombus;whiteSpace=wrap;html=1;fontFamily=Helvetica;fontSize=12;fontColor=default;" parent="1" vertex="1">
          <mxGeometry x="350" y="210" width="140" height="130" as="geometry" />
        </mxCell>
        <mxCell id="znrBxqbCc51DRQ3J4VA--2" style="edgeStyle=orthogonalEdgeStyle;rounded=0;orthogonalLoop=1;jettySize=auto;html=1;entryX=0.5;entryY=0;entryDx=0;entryDy=0;" edge="1" parent="1" source="EXvgWeVcrA3q5vCDi6ui-7" target="znrBxqbCc51DRQ3J4VA--1">
          <mxGeometry relative="1" as="geometry" />
        </mxCell>
        <mxCell id="EXvgWeVcrA3q5vCDi6ui-7" value="根据线程的hash值计算出数组下标" style="whiteSpace=wrap;html=1;" parent="1" vertex="1">
          <mxGeometry x="560" y="400" width="120" height="60" as="geometry" />
        </mxCell>
        <mxCell id="UYhrJbz3DvosTMAueTBt-2" value="每个线程都有一个私有的ThreadLocal.ThreadLocalMap对象，该对象里面的Entry数组才是正在存储值的地方" style="shape=document;whiteSpace=wrap;html=1;boundedLbl=1;" vertex="1" parent="1">
          <mxGeometry x="650" y="100" width="280" height="80" as="geometry" />
        </mxCell>
        <mxCell id="UYhrJbz3DvosTMAueTBt-3" value="" style="shape=flexArrow;endArrow=classic;html=1;rounded=0;entryX=0;entryY=0.25;entryDx=0;entryDy=0;exitX=0.786;exitY=0.308;exitDx=0;exitDy=0;exitPerimeter=0;" edge="1" parent="1" source="EXvgWeVcrA3q5vCDi6ui-3" target="UYhrJbz3DvosTMAueTBt-2">
          <mxGeometry width="50" height="50" relative="1" as="geometry">
            <mxPoint x="390" y="590" as="sourcePoint" />
            <mxPoint x="440" y="540" as="targetPoint" />
          </mxGeometry>
        </mxCell>
        <mxCell id="znrBxqbCc51DRQ3J4VA--5" style="edgeStyle=orthogonalEdgeStyle;rounded=0;orthogonalLoop=1;jettySize=auto;html=1;entryX=0.5;entryY=0;entryDx=0;entryDy=0;" edge="1" parent="1" source="znrBxqbCc51DRQ3J4VA--1" target="znrBxqbCc51DRQ3J4VA--3">
          <mxGeometry relative="1" as="geometry" />
        </mxCell>
        <mxCell id="znrBxqbCc51DRQ3J4VA--7" value="是" style="edgeLabel;html=1;align=center;verticalAlign=middle;resizable=0;points=[];" vertex="1" connectable="0" parent="znrBxqbCc51DRQ3J4VA--5">
          <mxGeometry x="-0.2571" y="2" relative="1" as="geometry">
            <mxPoint as="offset" />
          </mxGeometry>
        </mxCell>
        <mxCell id="znrBxqbCc51DRQ3J4VA--6" style="edgeStyle=orthogonalEdgeStyle;rounded=0;orthogonalLoop=1;jettySize=auto;html=1;entryX=0.558;entryY=-0.05;entryDx=0;entryDy=0;entryPerimeter=0;" edge="1" parent="1" source="znrBxqbCc51DRQ3J4VA--1" target="znrBxqbCc51DRQ3J4VA--4">
          <mxGeometry relative="1" as="geometry" />
        </mxCell>
        <mxCell id="znrBxqbCc51DRQ3J4VA--8" value="否" style="edgeLabel;html=1;align=center;verticalAlign=middle;resizable=0;points=[];" vertex="1" connectable="0" parent="znrBxqbCc51DRQ3J4VA--6">
          <mxGeometry x="-0.3728" y="-1" relative="1" as="geometry">
            <mxPoint as="offset" />
          </mxGeometry>
        </mxCell>
        <mxCell id="znrBxqbCc51DRQ3J4VA--1" value="key相同？" style="rhombus;whiteSpace=wrap;html=1;fontFamily=Helvetica;fontSize=12;fontColor=default;" vertex="1" parent="1">
          <mxGeometry x="550" y="540" width="140" height="130" as="geometry" />
        </mxCell>
        <mxCell id="znrBxqbCc51DRQ3J4VA--10" style="edgeStyle=orthogonalEdgeStyle;rounded=0;orthogonalLoop=1;jettySize=auto;html=1;entryX=0.25;entryY=0;entryDx=0;entryDy=0;" edge="1" parent="1" source="znrBxqbCc51DRQ3J4VA--3" target="znrBxqbCc51DRQ3J4VA--9">
          <mxGeometry relative="1" as="geometry">
            <mxPoint x="620" y="890" as="targetPoint" />
            <Array as="points">
              <mxPoint x="460" y="850" />
              <mxPoint x="590" y="850" />
            </Array>
          </mxGeometry>
        </mxCell>
        <mxCell id="znrBxqbCc51DRQ3J4VA--3" value="替换value" style="whiteSpace=wrap;html=1;" vertex="1" parent="1">
          <mxGeometry x="400" y="690" width="120" height="60" as="geometry" />
        </mxCell>
        <mxCell id="znrBxqbCc51DRQ3J4VA--12" style="edgeStyle=orthogonalEdgeStyle;rounded=0;orthogonalLoop=1;jettySize=auto;html=1;entryX=0.875;entryY=-0.033;entryDx=0;entryDy=0;entryPerimeter=0;" edge="1" parent="1" source="znrBxqbCc51DRQ3J4VA--4" target="znrBxqbCc51DRQ3J4VA--9">
          <mxGeometry relative="1" as="geometry">
            <Array as="points">
              <mxPoint x="770" y="850" />
              <mxPoint x="665" y="850" />
            </Array>
          </mxGeometry>
        </mxCell>
        <mxCell id="znrBxqbCc51DRQ3J4VA--4" value="往下找，找到相同就替换，找不到就新增" style="whiteSpace=wrap;html=1;" vertex="1" parent="1">
          <mxGeometry x="710" y="690" width="120" height="60" as="geometry" />
        </mxCell>
        <mxCell id="znrBxqbCc51DRQ3J4VA--15" style="edgeStyle=orthogonalEdgeStyle;rounded=0;orthogonalLoop=1;jettySize=auto;html=1;entryX=1;entryY=0.5;entryDx=0;entryDy=0;" edge="1" parent="1" source="znrBxqbCc51DRQ3J4VA--9" target="znrBxqbCc51DRQ3J4VA--13">
          <mxGeometry relative="1" as="geometry" />
        </mxCell>
        <mxCell id="znrBxqbCc51DRQ3J4VA--9" value="清理空节点" style="whiteSpace=wrap;html=1;" vertex="1" parent="1">
          <mxGeometry x="560" y="890" width="120" height="60" as="geometry" />
        </mxCell>
        <mxCell id="znrBxqbCc51DRQ3J4VA--13" value="end" style="whiteSpace=wrap;html=1;" vertex="1" parent="1">
          <mxGeometry x="140" y="890" width="120" height="60" as="geometry" />
        </mxCell>
      </root>
    </mxGraphModel>
  </diagram>
</mxfile>
